<?xml version="1.0" encoding="UTF-8"?>
<svg version="1.1" xmlns="http://www.w3.org/2000/svg" width="301" height="382">
<path d="M0 0 C2.10751823 0.00119438 4.21503699 0.00164442 6.32255554 0.00138855 C10.70717775 0.00294212 15.09171699 0.01115197 19.47631836 0.0246582 C25.10775848 0.04178346 30.73910897 0.04546807 36.37057209 0.04471302 C40.70695355 0.04498399 45.04331526 0.05045119 49.37969017 0.05771446 C51.45822183 0.06090225 53.53675572 0.06286879 55.61528969 0.06360817 C58.50178537 0.06576285 61.38818334 0.07448395 64.2746582 0.08520508 C65.56875359 0.0845253 65.56875359 0.0845253 66.88899231 0.08383179 C72.77223084 0.11598084 72.77223084 0.11598084 73.88671875 1.23046875 C73.98628153 3.40309555 74.01471594 5.57899981 74.01611328 7.75390625 C74.01874176 8.77584076 74.01874176 8.77584076 74.02142334 9.81842041 C74.02584117 12.08079542 74.02290413 14.34309288 74.01953125 16.60546875 C74.02020431 18.17106135 74.02117435 19.73665385 74.02243042 21.30224609 C74.0239073 24.5875752 74.02175316 27.87287717 74.01708984 31.15820312 C74.01139255 35.37867391 74.01467161 39.59908111 74.02066231 43.81954956 C74.02426819 47.05363447 74.02312921 50.2877042 74.02053452 53.52178955 C74.01986532 55.07838956 74.02069341 56.63499093 74.02301407 58.19158936 C74.02554105 60.36344071 74.0216994 62.53518771 74.01611328 64.70703125 C74.01531769 65.94533691 74.01452209 67.18364258 74.01370239 68.45947266 C73.88671875 71.23046875 73.88671875 71.23046875 72.88671875 72.23046875 C70.31370641 72.3396474 67.76655509 72.38469582 65.19262695 72.38818359 C64.38591553 72.39326431 63.5792041 72.39834503 62.74804688 72.40357971 C60.98779208 72.41431253 59.22752339 72.42292119 57.46724892 72.42969894 C54.66984073 72.44148062 51.87258746 72.46093866 49.07524109 72.4828186 C41.11816686 72.54440862 33.16110255 72.5981973 25.20385742 72.63183594 C20.33960567 72.65295369 15.47562663 72.68840766 10.61153221 72.73259354 C8.76706374 72.7466379 6.92254689 72.75544946 5.07802773 72.75864792 C-14.94153923 72.79698641 -32.90531035 75.29168233 -47.93359375 89.92578125 C-58.89404394 101.51478772 -63.20847898 113.70000303 -63.25804138 129.59494019 C-63.26156823 130.2904848 -63.26509507 130.98602942 -63.26872879 131.70265114 C-63.27931345 134.00864294 -63.28307856 136.31459329 -63.28686523 138.62060547 C-63.29317795 140.28354564 -63.29994454 141.94648414 -63.30712891 143.60942078 C-63.32174188 147.17737349 -63.33348895 150.74531993 -63.34307671 154.31328964 C-63.35857458 159.95173934 -63.38251942 165.59013374 -63.40797424 171.22854614 C-63.47907021 187.25714631 -63.53911009 203.28577668 -63.59008789 219.31445312 C-63.61834766 228.17670233 -63.65369451 237.03889502 -63.69674164 245.90108502 C-63.72355968 251.51036384 -63.74143553 257.11957885 -63.75277889 262.72890925 C-63.76187636 266.20889959 -63.77922276 269.68881174 -63.79895782 273.16875648 C-63.80645714 274.78691828 -63.81051581 276.40510007 -63.81095314 278.02327919 C-63.8120291 280.22497577 -63.82521633 282.42627077 -63.84153748 284.62789917 C-63.84576941 285.86192915 -63.85000135 287.09595913 -63.85436153 288.36738396 C-64.11328125 291.23046875 -64.11328125 291.23046875 -66.11328125 293.23046875 C-69.1496582 293.48443604 -69.1496582 293.48443604 -73.1015625 293.48925781 C-73.82040619 293.49276245 -74.53924988 293.49626709 -75.27987671 293.49987793 C-77.66194241 293.5086984 -80.0437124 293.50284511 -82.42578125 293.49609375 C-84.0772304 293.49744031 -85.72867916 293.49938077 -87.38012695 293.50189209 C-90.84362558 293.50484378 -94.30702115 293.50054432 -97.77050781 293.49121094 C-102.21623436 293.47981633 -106.66171945 293.48637557 -111.10743713 293.49835587 C-114.51828846 293.50557329 -117.92908227 293.50328709 -121.3399353 293.49810028 C-122.97944161 293.49676346 -124.6189531 293.49841265 -126.25845337 293.50305939 C-128.54744351 293.50812275 -130.83603933 293.50041737 -133.125 293.48925781 C-134.42912842 293.48766663 -135.73325684 293.48607544 -137.0769043 293.48443604 C-140.11328125 293.23046875 -140.11328125 293.23046875 -142.11328125 291.23046875 C-142.37055016 288.21070194 -142.37055016 288.21070194 -142.38070679 284.24635315 C-142.3852379 283.51892707 -142.38976901 282.791501 -142.39443743 282.04203171 C-142.40715178 279.59118996 -142.40545646 277.14056846 -142.40380859 274.68969727 C-142.40979027 272.93699862 -142.41659498 271.18430262 -142.42416382 269.43161011 C-142.44188763 264.65579774 -142.44652243 259.88005698 -142.44779539 255.10421491 C-142.44921623 252.11467001 -142.453485 249.12514333 -142.45878983 246.13560295 C-142.47732516 235.68763958 -142.48545781 225.23972731 -142.48388672 214.79174805 C-142.48269079 205.08764262 -142.50367576 195.3837616 -142.53537405 185.67971283 C-142.56166424 177.33038949 -142.57224841 168.9811387 -142.5709759 160.63177437 C-142.57046913 155.65399336 -142.57599025 150.67641077 -142.597332 145.69867134 C-142.61692467 140.99952123 -142.61669767 136.30075409 -142.60229874 131.6015892 C-142.60023389 129.89218895 -142.60476959 128.18276344 -142.61701965 126.47340584 C-142.84390413 92.56968283 -129.2468447 62.76718183 -105.57568359 38.68310547 C-89.13243909 22.3496656 -68.7183427 11.50275567 -46.61328125 4.98046875 C-45.78320557 4.73377441 -44.95312988 4.48708008 -44.09790039 4.23291016 C-29.4553405 0.12645716 -15.07893425 -0.05676249 0 0 Z " fill="#FFFFFF" transform="translate(152.11328125,8.76953125)"/>
<path d="M0 0 C1.12742615 -0.00281982 2.25485229 -0.00563965 3.41644287 -0.00854492 C4.66427551 -0.00652069 5.91210815 -0.00449646 7.19775391 -0.00241089 C8.50327209 -0.00416321 9.80879028 -0.00591553 11.15386963 -0.00772095 C14.7446815 -0.01229497 18.33546476 -0.01050585 21.92627716 -0.00734186 C25.67611267 -0.0048181 29.42594565 -0.00715584 33.17578125 -0.00872803 C39.47412559 -0.01054968 45.77245822 -0.00814354 52.07080078 -0.00338745 C59.36270524 0.00205516 66.65458174 0.0002925 73.94648552 -0.00521386 C80.19615354 -0.00974512 86.44581312 -0.01039547 92.69548225 -0.00777519 C96.43295882 -0.00621249 100.17042222 -0.00601846 103.90789795 -0.00931168 C108.07224191 -0.01272441 112.23653732 -0.00800044 116.40087891 -0.00241089 C117.64871155 -0.00443512 118.89654419 -0.00645935 120.18218994 -0.00854492 C121.87332916 -0.00431519 121.87332916 -0.00431519 123.59863281 0 C124.58457428 0.00037703 125.57051575 0.00075405 126.58633423 0.0011425 C128.79931641 0.12698364 128.79931641 0.12698364 129.79931641 1.12698364 C129.90343623 2.52385497 129.93892607 3.92591892 129.94648743 5.3266449 C129.95722038 6.68630875 129.95722038 6.68630875 129.96817017 8.07344055 C129.97085907 9.07635635 129.97354797 10.07927216 129.97631836 11.11257935 C129.98288956 12.16324585 129.98946075 13.21391235 129.99623108 14.29641724 C130.01604792 17.79853381 130.02765515 21.30060699 130.03759766 24.80276489 C130.04167318 26.00149923 130.04574871 27.20023357 130.04994774 28.4352932 C130.07085998 34.79956263 130.08513026 41.16381027 130.09448242 47.52810669 C130.10546117 54.05834797 130.13974613 60.58824035 130.17965412 67.11835957 C130.20602151 72.17097026 130.21419275 77.22350113 130.2177639 82.27617455 C130.22259076 84.67954001 130.234091 87.08290286 130.2528019 89.48620033 C130.38527062 107.65411028 129.39645924 125.52315311 122.11181641 142.43948364 C121.60026001 143.66719482 121.60026001 143.66719482 121.07836914 144.91970825 C115.73494413 157.35617531 108.66003348 167.90843566 99.79931641 178.12698364 C98.94307503 179.20867792 98.08851498 180.29170887 97.23681641 181.37698364 C94.02560692 184.99988666 90.53658589 188.05708371 86.79931641 191.12698364 C85.86087891 191.90299927 84.92244141 192.67901489 83.95556641 193.47854614 C75.78457926 200.07858679 67.10670726 205.28835639 57.79931641 210.12698364 C56.43419922 210.85014771 56.43419922 210.85014771 55.04150391 211.58792114 C37.31531326 220.31209648 14.63232358 225.8990049 -5.20068359 224.12698364 C-6.20068359 223.12698364 -6.20068359 223.12698364 -6.32093811 220.34925842 C-6.3187175 219.10793655 -6.31649689 217.86661469 -6.31420898 216.587677 C-6.31435501 215.90478104 -6.31450104 215.22188507 -6.31465149 214.51829529 C-6.31395236 212.2511075 -6.30616 209.98400091 -6.29833984 207.71682739 C-6.29647566 206.14883977 -6.29505176 204.58085157 -6.29405212 203.01286316 C-6.29022694 198.87821861 -6.28039665 194.74360898 -6.26934814 190.60897827 C-6.25913404 186.39297966 -6.25455451 182.17697543 -6.24951172 177.96096802 C-6.23877438 169.68295717 -6.22169796 161.40497475 -6.20068359 153.12698364 C-3.08759265 151.45139071 -0.38126384 150.75028282 3.12890625 150.24172974 C18.73897489 147.93506168 31.13981366 140.59707058 41.11181641 128.25198364 C50.18952943 115.21402187 51.14438296 101.29531931 50.92431641 85.81448364 C50.91529297 84.58536255 50.90626953 83.35624146 50.89697266 82.08987427 C50.87372094 79.1020282 50.84104764 76.1146188 50.79931641 73.12698364 C50.09996475 73.11667618 49.4006131 73.10636871 48.68006897 73.0957489 C42.10217977 72.99793332 35.5243822 72.89544207 28.9466486 72.78764439 C25.56464518 72.73238562 22.18263317 72.67896108 18.80053711 72.62966919 C14.91592213 72.57297418 11.03145763 72.5084078 7.14697266 72.44338989 C5.9272023 72.4266774 4.70743195 72.4099649 3.45069885 72.39274597 C2.32961227 72.37280075 1.2085257 72.35285553 0.0534668 72.33230591 C-0.93914658 72.31676163 -1.93175995 72.30121735 -2.95445251 72.28520203 C-5.20068359 72.12698364 -5.20068359 72.12698364 -6.20068359 71.12698364 C-6.30024637 68.95435684 -6.32868078 66.77845258 -6.33007812 64.60354614 C-6.33183044 63.92225647 -6.33358276 63.2409668 -6.33538818 62.53903198 C-6.33980602 60.27665697 -6.33686897 58.01435951 -6.33349609 55.75198364 C-6.33416915 54.18639104 -6.3351392 52.62079854 -6.33639526 51.0552063 C-6.33787214 47.76987719 -6.33571801 44.48457523 -6.33105469 41.19924927 C-6.3253574 36.97877848 -6.32863646 32.75837128 -6.33462715 28.53790283 C-6.33823304 25.30381792 -6.33709405 22.0697482 -6.33449936 18.83566284 C-6.33383017 17.27906283 -6.33465825 15.72246146 -6.33697891 14.16586304 C-6.33950589 11.99401168 -6.33566424 9.82226468 -6.33007812 7.65042114 C-6.32928253 6.41211548 -6.32848694 5.17380981 -6.32766724 3.89797974 C-6.11058834 -0.83904585 -4.25447126 0.00162692 0 0 Z " fill="#FFFFFF" transform="translate(168.20068359375,149.87301635742188)"/>
</svg>
